# xmcd
# 
# Track frame offsets:
#     150
#     19998
#     40950
#     63575
#     98680
# 
# Disc length: 1704
# 
# Revision: 1
# Processed by: cddbd v1.5.2PL0 Copyright (c) Steve Scherf et al.
# Submitted via: BonkEnc v1.0.8
# 
DISCID=3c06a605
DTITLE=CASCADE - STRAWBERRY MOON
DYEAR=2001
DGENRE=JPop
TTITLE0=STRAWBERRY MOON
TTITLE1=世紀末バンビーナ (世紀末バージョン)
TTITLE2=STRAWBERRY MOON (cafe au lait mix)
TTITLE3=STRAWBERRY MOON (neut mix)
TTITLE4=STRAWBERRY MOON (VIDEO TRACK)
EXTD=YEAR: 2001
EXTT0=
EXTT1=
EXTT2=
EXTT3=
EXTT4=
PLAYORDER=
